<svg width="120" height="120" viewBox="0 0 120 120" fill="none" xmlns="http://www.w3.org/2000/svg">
<g id="Shape 72">
<path id="Shape 72_2" fill-rule="evenodd" clip-rule="evenodd" d="M61.6586 18.8815L37.8866 47.9876C30.8172 56.6432 37.5381 69 49.3155 69C53.0164 69 55.1318 72.8798 52.916 75.6038L41.6225 89.487C36.4173 95.8858 41.3865 105 50.0805 105C53.4222 105 56.5667 103.547 58.5588 101.081L82.1712 71.8579C89.1383 63.2353 82.4404 51 70.7532 51C67.1086 51 65.0254 47.1792 67.2075 44.4968L78.5741 30.5237C83.7829 24.1205 78.8102 15 70.1102 15C66.7854 15 63.6544 16.4379 61.6586 18.8815Z" fill="#CF7500"/>
</g>
</svg>
