<svg width="74" height="74" viewBox="0 0 74 74" fill="none" xmlns="http://www.w3.org/2000/svg">
<path d="M36.504 0.887914C36.5783 0.305611 37.4217 0.305606 37.496 0.88791L41.4765 32.0908C41.5054 32.3167 41.6833 32.4946 41.9092 32.5235L73.1121 36.504C73.6944 36.5783 73.6944 37.4217 73.1121 37.496L41.9092 41.4765C41.6833 41.5054 41.5054 41.6833 41.4765 41.9092L37.496 73.1121C37.4217 73.6944 36.5783 73.6944 36.504 73.1121L32.5235 41.9092C32.4946 41.6833 32.3167 41.5054 32.0908 41.4765L0.887914 37.496C0.305611 37.4217 0.305606 36.5783 0.88791 36.504L32.0908 32.5235C32.3167 32.4946 32.4946 32.3167 32.5235 32.0908L36.504 0.887914Z" fill="black"/>
</svg>
