<svg width="62" height="62" viewBox="0 0 62 62" fill="none" xmlns="http://www.w3.org/2000/svg">
<g id="Shape 8">
<path id="Shape 8_2" d="M30.504 11.6379C30.5783 11.0556 31.4217 11.0556 31.496 11.6379L33.5815 27.9858C33.6103 28.2118 33.7882 28.3897 34.0142 28.4185L50.3621 30.504C50.9444 30.5783 50.9444 31.4217 50.3621 31.496L34.0142 33.5815C33.7882 33.6103 33.6103 33.7882 33.5815 34.0142L31.496 50.3621C31.4217 50.9444 30.5783 50.9444 30.504 50.3621L28.4185 34.0142C28.3897 33.7882 28.2118 33.6103 27.9858 33.5815L11.6379 31.496C11.0556 31.4217 11.0556 30.5783 11.6379 30.504L27.9858 28.4185C28.2118 28.3897 28.3897 28.2118 28.4185 27.9858L30.504 11.6379Z" fill="white"/>
</g>
</svg>
