<svg width="67" height="69" viewBox="0 0 67 69" fill="none" xmlns="http://www.w3.org/2000/svg">
<path d="M21.0625 28.9126C32.0125 28.9126 40.9 37.6876 40.9 48.5251C40.9 59.3626 32.0125 68.1376 21.0625 68.1376C10.1125 68.1376 1.22498 59.3626 1.22498 48.5251C1.22498 37.6876 10.1125 28.9126 21.0625 28.9126ZM21.0625 28.1626C9.69998 28.1626 0.474976 37.3126 0.474976 48.5251C0.474976 59.7376 9.69998 68.8876 21.0625 68.8876C32.425 68.8876 41.65 59.7376 41.65 48.5251C41.65 37.3126 32.425 28.1626 21.0625 28.1626Z" fill="black"/>
<path d="M50.65 36.9376V35.5876C51.8875 35.5876 61.15 32.7001 61.15 24.5626C61.15 18.0001 56.95 12.7876 46.675 12.7876H34.2625V22.7251H45.25C48.3625 22.7251 49.6 25.0501 49.6 27.0376C49.6 29.0251 48.3625 31.3501 45.25 31.3501H32.275V12.7876H20.6875V46.0126C21.7 46.0876 22.525 46.9501 22.525 47.9626C22.525 48.9751 21.7 49.8376 20.6875 49.9126V55.6126H32.05V41.2501H44.125C46.7875 41.2501 49.1125 43.3876 49.1125 45.9751C49.1125 50.8876 49.1125 60.7126 49.1125 60.7126H59.6125C59.6125 60.7126 59.6125 50.5876 59.6125 45.4501C59.6125 40.8001 55.4875 36.9376 50.65 36.9376Z" fill="black"/>
<path d="M9.175 66.1876C10.2727 66.1876 11.1625 65.3146 11.1625 64.2376C11.1625 63.1606 10.2727 62.2876 9.175 62.2876C8.07733 62.2876 7.1875 63.1606 7.1875 64.2376C7.1875 65.3146 8.07733 66.1876 9.175 66.1876Z" fill="black"/>
<path d="M20.5375 49.2375C21.2416 49.2375 21.8125 48.6667 21.8125 47.9625C21.8125 47.2583 21.2416 46.6875 20.5375 46.6875C19.8333 46.6875 19.2625 47.2583 19.2625 47.9625C19.2625 48.6667 19.8333 49.2375 20.5375 49.2375Z" fill="black"/>
<path d="M65.5 1.6125V10.275H35.125V6.375C35.125 3.75 37.2625 1.6125 39.8875 1.6125H65.5ZM66.3625 0.75H39.8875C36.775 0.75 34.2625 3.2625 34.2625 6.375V11.1375H66.3625V0.75Z" fill="black"/>
</svg>
