<svg width="80" height="80" viewBox="0 0 80 80" fill="none" xmlns="http://www.w3.org/2000/svg">
<path d="M40.6757 0.628889C40.6154 -0.209625 39.3846 -0.209632 39.3243 0.628883L37.3237 28.4729L32.2638 18.3728C31.8872 17.6212 30.7501 18.0922 31.0153 18.8899L35.0799 31.1157L12.6382 11.6826C12.0027 11.1323 11.1323 12.0027 11.6826 12.6382L30.306 34.145L19.3896 30.5156C18.5919 30.2504 18.1209 31.3876 18.8725 31.7641L29.7823 37.2296L0.628889 39.3243C-0.209625 39.3846 -0.209632 40.6154 0.628883 40.6757L29.7288 42.7665L18.8725 48.2053C18.1208 48.5818 18.5919 49.719 19.3896 49.4538L30.3432 45.8121L11.6826 67.3618C11.1323 67.9973 12.0027 68.8677 12.6382 68.3174L35.0657 48.8967L31.0153 61.0795C30.7501 61.8772 31.8873 62.3482 32.2638 61.5966L37.3218 51.5003L39.3243 79.3711C39.3846 80.2096 40.6154 80.2096 40.6757 79.3711L42.7997 49.8091L48.705 61.5966C49.0815 62.3482 50.2187 61.8772 49.9535 61.0795L46.2948 50.0747L67.3618 68.3174C67.9973 68.8677 68.8677 67.9973 68.3174 67.3618L49.2651 45.3598L61.5791 49.4538C62.3769 49.719 62.8479 48.5818 62.0963 48.2053L51.1184 42.7057L79.3711 40.6757C80.2096 40.6154 80.2096 39.3846 79.3711 39.3243L51.065 37.2905L62.0963 31.7641C62.8479 31.3876 62.3769 30.2504 61.5791 30.5156L49.3023 34.5973L68.3174 12.6382C68.8677 12.0027 67.9973 11.1323 67.3618 11.6826L46.2805 29.9376L49.9535 18.8899C50.2187 18.0922 49.0815 17.6212 48.705 18.3728L42.7978 30.1641L40.6757 0.628889Z" fill="black"/>
</svg>
