<svg width="110" height="110" viewBox="0 0 110 110" fill="none" xmlns="http://www.w3.org/2000/svg">
<g id="Shape 70">
<g id="Shape 38">
<path d="M13.75 13.75C13.75 36.5317 32.2183 55 55 55C77.7817 55 96.25 36.5317 96.25 13.75H82.5C82.5 28.9378 70.1878 41.25 55 41.25C39.8122 41.25 27.5 28.9378 27.5 13.75H13.75Z" fill="#CF7500"/>
<path d="M55 27.5C47.4061 27.5 41.25 21.3439 41.25 13.75L68.75 13.75C68.75 21.3439 62.5939 27.5 55 27.5Z" fill="#CF7500"/>
<path d="M55 55C32.2183 55 13.75 73.4683 13.75 96.25H27.5C27.5 81.0622 39.8122 68.75 55 68.75C70.1878 68.75 82.5 81.0622 82.5 96.25L96.25 96.25C96.25 73.4683 77.7817 55 55 55Z" fill="#CF7500"/>
<path d="M55 82.5C47.4061 82.5 41.25 88.6561 41.25 96.25H68.75C68.75 88.6561 62.5939 82.5 55 82.5Z" fill="#CF7500"/>
</g>
</g>
</svg>
