<svg width="110" height="110" viewBox="0 0 110 110" fill="none" xmlns="http://www.w3.org/2000/svg">
<g id="Shape 69">
<path id="Shape 69_2" d="M54.7917 96.25C31.1458 96.25 13.75 78.75 13.75 55.1042C13.75 31.1458 31.6667 13.75 54.7917 13.75C78.3333 13.75 96.25 31.6667 96.25 55.1042C96.25 78.2292 78.8542 96.25 54.7917 96.25ZM51.6667 88.2292V21.7708L45.625 22.9167V87.2917L51.6667 88.2292ZM58.0208 88.2292L64.0625 87.2917V22.9167L58.0208 21.7708V88.2292ZM39.2708 84.6875V25.3125C37.1875 26.4583 35.2083 27.8125 33.3333 29.4792V80.7292C35.3125 81.9792 37.2917 83.3333 39.2708 84.6875ZM70.3125 84.7917L76.3542 80.7292V29.2708L70.3125 25.3125V84.7917ZM82.8125 73.75C86.5625 68.3333 88.3333 62.0833 88.3333 55.1042C88.3333 48.4375 86.5625 42.2917 82.8125 36.4583V73.75ZM27.0833 73.75V36.5625C23.5417 41.9792 21.7708 48.125 21.7708 55.1042C21.7708 61.9792 23.4375 68.125 27.0833 73.75Z" fill="#CF7500"/>
</g>
</svg>
