<?xml version="1.0" encoding="utf-8"?>
<!-- Generator: Adobe Illustrator 19.1.0, SVG Export Plug-In . SVG Version: 6.00 Build 0)  -->
<svg version="1.1" id="Layer_1" xmlns="http://www.w3.org/2000/svg" xmlns:xlink="http://www.w3.org/1999/xlink" x="0px" y="0px"
	 viewBox="0 0 400 400" style="enable-background:new 0 0 400 400;" xml:space="preserve">
<style type="text/css">
	.st0{fill:none;stroke:#000000;stroke-width:20;stroke-miterlimit:10;}
</style>
<g>
	<path class="st0" d="M315.5,382h-227c-38.7,0-70-31.3-70-70V91c0-38.7,31.3-70,70-70h227c38.7,0,70,31.3,70,70v221
		C385.5,350.7,354.1,382,315.5,382z"/>
	<path d="M285.2,133.9c10.7,0,19.5-8.7,19.5-19.3s-8.8-19.3-19.5-19.3s-19.5,8.7-19.5,19.3C265.8,125.3,274.4,133.9,285.2,133.9z"/>
	<path d="M266.2,150.8h37.6v141.4h-37.6V150.8z"/>
	<path d="M146.6,244.7h50.9l13.7,47.4h38.5l-55.9-185.8H147v18.3L98,292.1h34.8L146.6,244.7L146.6,244.7z M171.8,139.4l18.8,72.9
		H153L171.8,139.4L171.8,139.4z"/>
</g>
</svg>
