<?xml version="1.0" encoding="utf-8"?>
<!-- Generator: Adobe Illustrator 19.1.0, SVG Export Plug-In . SVG Version: 6.00 Build 0)  -->
<svg version="1.1" id="Layer_1" xmlns="http://www.w3.org/2000/svg" xmlns:xlink="http://www.w3.org/1999/xlink" x="0px" y="0px"
	 viewBox="0 0 400 400" style="enable-background:new 0 0 400 400;" xml:space="preserve">
<style type="text/css">
	.st0{fill:none;stroke:#000000;stroke-width:20;stroke-miterlimit:10;}
</style>
<path d="M325.3,7.7H71.7C33.2,7.7,2.1,38.8,2.1,77.3v243.9c0,38.5,31.1,69.6,69.6,69.6h253.7c38.5,0,69.6-31.1,69.6-69.6V77.3
	C394.9,38.8,363.8,7.7,325.3,7.7z M378.4,314.7c0.2,32.7-26.3,59.4-59,59.6c-0.1,0-0.2,0-0.2,0H77.9c-32.7,0-59.4-26.7-59.4-59.4
	V83.5c0-32.7,26.7-59.4,59.4-59.4H319c32.8,0,59.4,26.6,59.4,59.4c0,0,0,0,0,0L378.4,314.7L378.4,314.7z M157.4,186.9l45.8,88.1
	c0.8,1.3,0.3,2.6-1,2.6h-28.5c-1.8,0-2.6-0.5-3.4-2.1c-10.5-21.6-21.1-43.2-32.1-66.4h-0.3c-9.8,21.9-20.6,45-31.1,66.6
	c-0.8,1.3-1.6,1.8-2.9,1.8h-27c-1.6,0-1.8-1.3-1-2.3l44.8-85.4l-43.4-86.4c-1-1.3,0-2.3,1-2.3h28.2c1.6,0,2.3,0.3,2.9,1.8
	c10.3,21.6,20.8,43.9,30.6,65.6h0.3c9.5-21.6,20-44,30.1-65.5c0.8-1.3,1.3-2.1,2.9-2.1h26.3c1.3,0,1.8,1,1,2.3L157.4,186.9
	L157.4,186.9z M211.3,213.6c0-38.1,25.4-67.9,65.6-67.9c3.4,0,5.2,0,8.5,0.3v-43.4c0-1,0.8-1.6,1.6-1.6h25.9c1.3,0,1.6,0.5,1.6,1.3
	v150.2c0,4.4,0,10,0.8,16c0,1-0.3,1.3-1.3,1.8c-13.7,6.5-28.2,9.5-41.9,9.5C236.6,280.1,211.3,258.1,211.3,213.6L211.3,213.6z
	 M285.4,171.7c-2.3-1-5.6-1.6-9.5-1.6c-20.6,0-35,15.9-35,42.2c0,30.1,14.7,42.2,33.2,42.2c3.9,0,8.2-0.5,11.3-1.8V171.7z"/>
</svg>
