<?xml version="1.0" encoding="utf-8"?>
<!-- Generator: Adobe Illustrator 19.1.0, SVG Export Plug-In . SVG Version: 6.00 Build 0)  -->
<svg version="1.1" id="Layer_1" xmlns="http://www.w3.org/2000/svg" xmlns:xlink="http://www.w3.org/1999/xlink" x="0px" y="0px"
	 viewBox="0 0 400 400" style="enable-background:new 0 0 400 400;" xml:space="preserve">
<style type="text/css">
	.st0{fill:none;stroke:#000000;stroke-width:20;stroke-miterlimit:10;}
</style>
<path d="M300.4,21.1L366.9,68L367,68l0.7,0.5c4.1,3,8,5.9,10.7,9.2c3.4,4.2,4.5,8.7,4.5,14.1v250.5c0,8.6-1.5,17.2-7.3,23.8
	c-5.9,6.7-14.7,9.7-25.7,10.5l0,0l-236,14.3l-0.1,0c-7.8,0.4-14.6,0.1-20.7-2.2c-6.4-2.4-11.3-6.5-15.8-12.3l0,0l-47.8-62.2l0,0
	c-9.1-12.2-13.7-22.4-13.7-34.7V52.2c0-7.5,1.6-15.3,6.6-21.6C27.3,24,35,20.2,45,19.3l0.1,0l203-10.4c12.4-1.1,21.4-1.4,29.4,0.4
	C285.8,11.3,292.4,15.2,300.4,21.1z M104.1,346L104.1,346l0,7.9c0,4.6,1.1,5.6,1.5,5.9c0.7,0.6,2.9,1.6,8.7,1.2l233.1-12.8
	c4.6-0.3,5.4-1.6,5.6-1.9l0,0c0.7-1.1,1.2-3.4,1.2-8V113.1c0-3.9-0.8-5.3-1-5.6l0,0l0,0l0,0c0,0,0,0,0,0c-0.1,0-0.6-0.2-1.7-0.1
	l-0.1,0L108.2,121c-1.5,0.1-2.3,0.4-2.8,0.6c-0.3,0.1-0.4,0.2-0.4,0.3l0,0c-0.2,0.2-0.9,1.4-0.9,5.6L104.1,346L104.1,346z
	 M125.9,90.7l208.3-10.8l-50.3-36.8l-0.1-0.1c-3-2.3-6-4.4-9.9-5.9c-3.8-1.4-8.8-2.4-16-1.8l-0.1,0L49.7,47.2h0
	c-0.7,0-1.4,0.1-2.1,0.3l41.1,38.3c4.9,3.9,7.4,5.1,10.4,5.7c3.7,0.7,8.4,0.4,18.5-0.3l8.4-0.6V90.7L125.9,90.7z M44,82.2v200.7
	c0,1.3,0.4,2.5,1.2,3.6l31.5,41.8V116.1c0-1.7-0.8-3.4-2.1-4.5l-0.2-0.2L44,82.2z M306.8,166c1.1,4.9,0,9.8-4.9,10.3l-8.1,1.6v119.3
	c-7.1,3.8-13.5,6-19,6c-8.7,0-10.8-2.7-17.3-10.8l0,0l-53.1-83.5v80.8l16.8,3.8c0,0,0,9.8-13.6,9.8l-37.4,2.2
	c-1.1-2.2,0-7.6,3.8-8.7l9.8-2.7V187.2l-13.5-1.1c-1.1-4.9,1.6-11.9,9.2-12.5l40.1-2.7l55.2,84.6v-74.9l-14.1-1.6
	c-1.1-6,3.2-10.3,8.7-10.9L306.8,166L306.8,166z"/>
</svg>
