<?xml version="1.0" encoding="utf-8"?>
<!-- Generator: Adobe Illustrator 19.1.0, SVG Export Plug-In . SVG Version: 6.00 Build 0)  -->
<svg version="1.1" id="Layer_1" xmlns="http://www.w3.org/2000/svg" xmlns:xlink="http://www.w3.org/1999/xlink" x="0px" y="0px"
	 viewBox="0 0 400 400" style="enable-background:new 0 0 400 400;" xml:space="preserve">
<style type="text/css">
	.st0{fill:none;stroke:#000000;stroke-width:20;stroke-miterlimit:10;}
</style>
<g>
	<path class="st0" d="M314,382H87c-38.7,0-70-31.3-70-70V91c0-38.7,31.3-70,70-70h227c38.7,0,70,31.3,70,70v221
		C384,350.7,352.7,382,314,382z"/>
	<path d="M189.1,121.8c-10.1-8.7-25-13.6-46-13.6c-20.8,0-46,0.7-46,0.7v161.1h33.7v-51.8c0,0,5.9-0.1,12.3-0.3
		c23.1-1,36.6-8,48.3-19.8c8.9-9.2,13.9-22.2,13.9-38.1S198.7,130,189.1,121.8L189.1,121.8z M142.2,189.6c-5.4,0.1-7.7,0.2-11.4-0.1
		v-55.6c0,0,7.2-0.2,14.1,0c17.4,0.6,26.6,12.9,26.6,27.9C171.5,178.4,160.3,189.4,142.2,189.6L142.2,189.6z"/>
	<path d="M271.1,194.5c-14.6-5.2-19.2-8.1-19.2-13.8c0-6.1,5.1-9.8,14.1-9.8c10.2,0,25.6,6.6,31,9.5v-27.1
		c-7.3-3.7-18.4-8.2-32.2-8.2c-29.4,0-48.4,17-48.4,39.6c-0.2,14,9.2,24,33.8,32.4c13.9,4.7,17.5,11.1,17.5,17.3
		c0,6.2-4.6,10.1-15.8,10.1c-10.9,0-27-6.3-33.8-10.4l0,0v26.8c9,4.9,22,9.6,33.8,9.9c34.3,1.1,51.5-16.7,51.5-39.1
		C303.2,214,293.7,202.4,271.1,194.5L271.1,194.5z"/>
</g>
</svg>
