<?xml version="1.0" encoding="utf-8"?>
<!-- Generator: Adobe Illustrator 19.1.0, SVG Export Plug-In . SVG Version: 6.00 Build 0)  -->
<svg version="1.1" id="Layer_1" xmlns="http://www.w3.org/2000/svg" xmlns:xlink="http://www.w3.org/1999/xlink" x="0px" y="0px"
	 viewBox="0 0 400 400" style="enable-background:new 0 0 400 400;" xml:space="preserve">
<style type="text/css">
	.st0{fill:none;stroke:#000000;stroke-width:20;stroke-miterlimit:10;}
</style>
<path d="M295.6,137.8c35.3-17.6,49.6-60.4,32.1-95.6C315.6,18,290.9,2.6,263.8,2.6H136.2C96.8,2.6,64.8,34.6,64.8,74
	c0,27.1,15.3,51.8,39.5,63.9c-35.3,17.5-49.6,60.3-32.1,95.6c6.9,13.9,18.2,25.2,32.1,32.1c-35.3,17.6-49.6,60.4-32,95.7
	s60.4,49.6,95.7,32c24.2-12.1,39.5-36.8,39.5-63.9v-84c24.1,31.1,68.9,36.8,100.1,12.7s36.8-68.9,12.7-100.1
	C313.6,149.5,305.2,142.6,295.6,137.8z M320.2,74c0,31.1-25.2,56.3-56.3,56.3l0,0l-0.1,0l-56.3,0V17.7h56.3
	C294.9,17.7,320.1,42.9,320.2,74z M220.1,145.3c-4.7,3.7-8.9,7.9-12.6,12.6v-12.6L220.1,145.3z M79.8,74c0-31.1,25.2-56.3,56.3-56.3
	h56.3v112.7h-56.3l0,0C105,130.3,79.9,105.1,79.8,74z M136.2,385.7c-31.1,0-56.3-25.2-56.4-56.3c0-31.1,25.2-56.3,56.3-56.4
	c0,0,0.1,0,0.1,0l56.3,0v56.3C192.5,360.4,167.3,385.6,136.2,385.7z M192.5,258l-56.3,0c-31.1,0-56.3-25.2-56.3-56.3
	c0-31.1,25.2-56.3,56.3-56.3l0,0l56.3,0V258z M263.8,258c-31.1,0-56.3-25.2-56.3-56.3c0-31.1,25.2-56.3,56.2-56.3h0.1l0,0
	c31.1,0,56.3,25.3,56.3,56.4C320.1,232.8,294.9,258,263.8,258z"/>
</svg>
